<?xml version="1.0" encoding="utf-8"?>
<!-- Generator: Adobe Illustrator 23.1.0, SVG Export Plug-In . SVG Version: 6.00 Build 0)  -->
<svg version="1.1" id="圖層_1" xmlns="http://www.w3.org/2000/svg" xmlns:xlink="http://www.w3.org/1999/xlink" x="0px" y="0px"
	 viewBox="0 0 32 32" style="enable-background:new 0 0 32 32;" xml:space="preserve">
<style type="text/css">
	.st0{fill:#EF5902;}
	.st1{fill:#FF9900;}
</style>
<title>ico_arrow-naked_blue</title>
<g>
	<path class="st0" d="M20.7,23.1l1.1-2.2c0.4-0.7,0.6-1.6,0.6-2.4v0c0-0.9-0.3-1.9-1-2.6c-0.6-0.7-1.5-1.2-2.4-1.3L17,14.2v-3.7
		c0-0.9-0.7-1.6-1.6-1.6h0c-0.9,0-1.6,0.7-1.6,1.6v6l-2.2-0.9c-0.4-0.2-1-0.1-1.4,0.1c-0.4,0.3-0.6,0.7-0.6,1.2v0
		c0,0.4,0.2,0.8,0.5,1.1l3.7,3.3v1.8"/>
	<path class="st1" d="M14.5,18.9C14.5,18.9,14.5,18.9,14.5,18.9C14.5,18.9,14.5,18.9,14.5,18.9C14.5,18.9,14.5,18.9,14.5,18.9
		C14.5,18.9,14.5,18.8,14.5,18.9C14.5,18.8,14.5,18.8,14.5,18.9c0.1-0.1,0.1-0.2,0.1-0.2"/>
</g>
</svg>
