<?xml version="1.0" encoding="utf-8"?>
<!-- Generator: Adobe Illustrator 23.1.0, SVG Export Plug-In . SVG Version: 6.00 Build 0)  -->
<svg version="1.1" id="Capa_1" xmlns="http://www.w3.org/2000/svg" xmlns:xlink="http://www.w3.org/1999/xlink" x="0px" y="0px"
	 viewBox="0 0 475.1 475.1" style="enable-background:new 0 0 475.1 475.1;" xml:space="preserve">
<style type="text/css">
	.st0{fill:#FF9900;}
</style>
<g>
	<path class="st0" d="M381.5,348.7l-62.1-62.1c15-21.6,22.4-45.7,22.4-72.2c0-17.2-3.4-33.7-10.1-49.5
		c-6.7-15.7-15.7-29.4-27.1-40.7s-25-20.5-40.7-27.1C248.2,90.4,231.7,87,214.4,87s-33.7,3.4-49.5,10c-15.7,6.7-29.3,15.8-40.7,27.2
		c-11.4,11.4-20.5,25-27.1,40.7C90.4,180.7,87,197.2,87,214.4s3.4,33.7,10,49.5c6.7,15.7,15.7,29.3,27.1,40.7
		c11.4,11.4,25,20.5,40.7,27.1c15.7,6.7,32.3,10,49.5,10c26.6,0,50.7-7.5,72.2-22.4l62.1,61.9c4.4,4.6,9.8,6.8,16.3,6.8
		c6.3,0,11.7-2.3,16.3-6.8c4.6-4.6,6.8-10,6.8-16.3C388.2,358.7,386,353.2,381.5,348.7z M271.8,271.8
		c-15.9,15.9-34.9,23.8-57.3,23.8c-22.3,0-41.4-7.9-57.3-23.8c-15.9-15.9-23.8-34.9-23.8-57.3c0-22.3,7.9-41.4,23.8-57.3
		c15.9-15.9,34.9-23.8,57.3-23.8c22.3,0,41.4,7.9,57.3,23.8c15.9,15.9,23.8,34.9,23.8,57.3C295.5,236.8,287.6,255.8,271.8,271.8z"/>
</g>
</svg>
